#!OML:ASF E:\Steps\Project 1\Capture day 1\Session 2\Subject.ASF
:FULLY-SPECIFIED
:DEGREES
633
root 3.584 17.9726 7.45336 -156.152 -3.29002 177.563
lowerback -30.4851 -3.01119 -7.34842
upperback -1.31667 -2.07636 -0.286837
thorax 14.7096 -1.69456 2.75208
lowerneck -6.23892 -6.63831 0.965537
upperneck 10.4666 -9.23255 3.76151
head 4.75836 -4.19434 0.548708
rclavicle 1.69961e-014 1.03368e-014
rhumerus -35.6173 -20.9371 -75.8879
rradius 26.1609
rwrist 2.94533
rhand -8.67564 -52.8289
rfingers 7.12502
rthumb 17.2586 -82.0826
lclavicle 1.69961e-014 1.03368e-014
lhumerus -28.0983 1.05202 80.8074
lradius 17.1599
lwrist -9.18191
lhand -22.3335 -11.0311
lfingers 7.12502
lthumb 4.08676 18.9095
rfemur -20.8177 8.16711 18.7114
rtibia 8.10967
rfoot -17.2586 0.982682
rtoes -16.748
lfemur -20.5475 -9.65277 -22.1701
ltibia 7.81432
lfoot -7.0129 -3.57766
ltoes -33.3963
634
root 3.58499 17.9745 7.45718 -156.129 -3.23281 177.56
lowerback -30.4827 -2.98766 -7.37065
upperback -1.32689 -2.04072 -0.284086
thorax 14.6933 -1.68045 2.78175
lowerneck -6.20855 -6.67241 0.918819
upperneck 10.3998 -9.27948 3.84279
head 4.73627 -4.21738 0.583038
rclavicle -1.39149e-014 -4.69132e-014
rhumerus -35.6567 -20.9609 -75.8488
rradius 26.1696
rwrist 3.02535
rhand -8.56756 -52.6262
rfingers 7.12502
rthumb 17.3627 -81.8707
lclavicle -1.39149e-014 -4.69132e-014
lhumerus -28.083 1.06638 80.8253
lradius 17.167
lwrist -9.24076
lhand -22.4192 -11.0873
lfingers 7.12502
lthumb 4.00394 18.8548
rfemur -20.8882 8.21685 18.6799
rtibia 8.1266
rfoot -17.2574 0.990403
rtoes -16.8176
lfemur -20.5795 -9.6904 -22.1499
ltibia 7.77698
lfoot -6.93823 -3.49019
ltoes -33.0132
635
root 3.58667 17.9772 7.46443 -156.124 -3.14564 177.529
lowerback -30.4036 -2.99043 -7.42035
upperback -1.33218 -2.03381 -0.277438
thorax 14.6522 -1.67925 2.82147
lowerneck -6.26842 -6.73923 0.911475
upperneck 10.4367 -9.37268 3.84141
head 4.76411 -4.26174 0.575049
rclavicle -4.07509e-015 -1.27222e-014
rhumerus -35.6113 -20.9934 -75.8293
rradius 26.1486
rwrist 3.23706
rhand -8.18487 -52.9344
rfingers 7.12502
rthumb 17.731 -82.146
lclavicle -4.07509e-015 -1.27222e-014
lhumerus -28.0588 1.06577 80.8458
lradius 17.1952
lwrist -9.20717
lhand -22.3808 -11.3243
lfingers 7.12502
lthumb 4.04102 18.6171
rfemur -20.9932 8.23597 18.6185
rtibia 8.22807
rfoot -17.2949 0.973056
rtoes -17.2339
lfemur -20.6212 -9.65615 -22.1803
ltibia 7.77475
lfoot -6.92741 -3.42928
ltoes -32.7583
636
root 3.5882 17.9774 7.47196 -156.103 -3.02838 177.453
lowerback -30.322 -2.98384 -7.51125
upperback -1.35508 -2.00216 -0.296132
thorax 14.5858 -1.66967 2.86563
lowerneck -6.24144 -6.78137 0.861387
upperneck 10.4748 -9.42962 3.91046
head 4.78123 -4.28568 0.603607
rclavicle 4.37326e-015 3.22031e-014
rhumerus -35.5381 -21.096 -75.791
rradius 26.0404
rwrist 3.40896
rhand -8.18493 -53.3945
rfingers 7.12502
rthumb 17.7309 -82.6061
lclavicle 4.37326e-015 3.22031e-014
lhumerus -28.0248 1.21244 80.7942
lradius 17.1666
lwrist -9.35551
lhand -22.3857 -11.5233
lfingers 7.12502
lthumb 4.03635 18.4183
rfemur -21.115 8.28134 18.4967
rtibia 8.33115
rfoot -17.3845 1.02109
rtoes -17.6652
lfemur -20.6813 -9.59567 -22.2801
ltibia 7.80113
lfoot -6.92948 -3.39375
ltoes -32.7175
637
root 3.58984 17.9769 7.47696 -156.069 -2.97333 177.448
lowerback -30.2979 -2.95804 -7.5363
upperback -1.37147 -1.96486 -0.295048
thorax 14.5522 -1.65444 2.89641
lowerneck -6.12659 -6.78899 0.700475
upperneck 10.4021 -9.43804 4.13478
head 4.7555 -4.28618 0.711182
rclavicle -2.6339e-015 -5.20816e-014
rhumerus -35.5122 -21.1584 -75.7785
rradius 26.0193
rwrist 3.49036
rhand -8.30738 -53.6399
rfingers 7.12502
rthumb 17.6131 -82.8621
lclavicle -2.6339e-015 -5.20816e-014
lhumerus -27.9571 1.45967 80.7399
lradius 17.1036
lwrist -9.62106
lhand -22.4154 -11.588
lfingers 7.12502
lthumb 4.00759 18.3541
rfemur -21.2057 8.37034 18.4654
rtibia 8.37584
rfoot -17.4094 1.04927
rtoes -17.6338
lfemur -20.7499 -9.5613 -22.2803
ltibia 7.82243
lfoot -6.9273 -3.35303
ltoes -33.1738
638
root 3.59034 17.9776 7.48086 -156.048 -2.94753 177.495
lowerback -30.3075 -2.90451 -7.47936
upperback -1.36116 -1.91023 -0.301614
thorax 14.5619 -1.62607 2.88078
lowerneck -6.08475 -6.44538 0.588964
upperneck 10.3052 -9.60102 4.36119
head 4.73934 -4.62228 0.776651
rclavicle 5.81445e-015 2.0276e-014
rhumerus -35.5256 -21.2071 -75.7979
rradius 26.1096
rwrist 3.48721
rhand -8.33016 -53.8149
rfingers 7.12502
rthumb 17.5911 -83.0391
lclavicle 5.81445e-015 2.0276e-014
lhumerus -27.8744 1.4782 80.7709
lradius 17.125
lwrist -9.66968
lhand -22.3254 -11.331
lfingers 7.12502
lthumb 4.09459 18.6094
rfemur -21.2704 8.37049 18.5165
rtibia 8.40848
rfoot -17.3781 1.09725
rtoes -17.3043
lfemur -20.7945 -9.51432 -22.2278
ltibia 7.83352
lfoot -6.97586 -3.34654
ltoes -33.617
639
root 3.58998 17.9782 7.48595 -156.063 -2.91408 177.496
lowerback -30.2751 -2.8783 -7.45542
upperback -1.35382 -1.8827 -0.313856
thorax 14.5523 -1.61102 2.86702
lowerneck -6.0209 -6.44029 0.50726
upperneck 10.2794 -9.6014 4.48054
head 4.72984 -4.62285 0.833265
rclavicle -5.71506e-015 1.55052e-014
rhumerus -35.5106 -21.268 -75.7707
rradius 26.0892
rwrist 3.54557
rhand -8.34764 -53.627
rfingers 7.12502
rthumb 17.5743 -82.8527
lclavicle -5.71506e-015 1.55052e-014
lhumerus -27.8421 1.44995 80.8169
lradius 17.2103
lwrist -9.64064
lhand -22.2546 -11.0153
lfingers 7.12502
lthumb 4.16291 18.9238
rfemur -21.2888 8.29308 18.528
rtibia 8.414
rfoot -17.3687 1.22116
rtoes -17.181
lfemur -20.7983 -9.46473 -22.2452
ltibia 7.85386
lfoot -7.0706 -3.386
ltoes -33.6971
640
root 3.59002 17.9781 7.48932 -156.107 -2.89129 177.488
lowerback -30.2398 -2.88808 -7.45145
upperback -1.32049 -1.89263 -0.304955
thorax 14.5773 -1.61399 2.87188
lowerneck -6.00546 -6.83161 0.439308
upperneck 10.2945 -9.5002 4.54814
head 4.73594 -4.30684 0.896693
rclavicle -9.44227e-016 -8.74653e-015
rhumerus -35.425 -21.2365 -75.7623
rradius 26.0306
rwrist 3.59861
rhand -8.19962 -53.2094
rfingers 7.12502
rthumb 17.7168 -82.4223
lclavicle -9.44227e-016 -8.74653e-015
lhumerus -27.7974 1.332 80.9175
lradius 17.3032
lwrist -9.46832
lhand -22.2379 -10.9891
lfingers 7.12502
lthumb 4.17901 18.9497
rfemur -21.2329 8.19547 18.5408
rtibia 8.3625
rfoot -17.3466 1.37899
rtoes -17.2301
lfemur -20.6896 -9.48758 -22.2619
ltibia 7.71738
lfoot -7.07042 -3.37632
ltoes -33.8338
641
root 3.59087 17.9777 7.4907 -156.123 -2.83366 177.46
lowerback -30.2446 -2.8815 -7.48654
upperback -1.28939 -1.86509 -0.309589
thorax 14.6133 -1.6038 2.8966
lowerneck -6.02289 -6.84011 0.37585
upperneck 10.2254 -9.51867 4.69758
head 4.7284 -4.3119 0.956862
rclavicle -4.12478e-015 4.37326e-015
rhumerus -35.3774 -21.2947 -75.7264
rradius 26.0089
rwrist 3.63487
rhand -8.05317 -53.0749
rfingers 7.12502
rthumb 17.8577 -82.275
lclavicle -4.12478e-015 4.37326e-015
lhumerus -27.7508 1.05673 81.0526
lradius 17.4111
lwrist -9.18124
lhand -22.1569 -11.1357
lfingers 7.12502
lthumb 4.25722 18.8015
rfemur -21.2222 8.2156 18.5043
rtibia 8.37763
rfoot -17.3481 1.40541
rtoes -17.3824
lfemur -20.5944 -9.49466 -22.3106
ltibia 7.56753
lfoot -7.00655 -3.33558
ltoes -33.7389
642
root 3.59236 17.9771 7.4943 -156.095 -2.79614 177.421
lowerback -30.245 -2.88983 -7.53828
upperback -1.30939 -1.86328 -0.308313
thorax 14.5904 -1.60698 2.92635
lowerneck -5.93931 -6.79222 0.269162
upperneck 10.2161 -9.44908 4.80242
head 4.71973 -4.27669 1.01815
rclavicle 1.04362e-015 -4.77083e-015
rhumerus -35.4006 -21.3662 -75.6714
rradius 26.0256
rwrist 3.74185
rhand -8.10386 -52.9771
rfingers 7.12502
rthumb 17.8089 -82.1817
lclavicle 1.04362e-015 -4.77083e-015
lhumerus -27.7887 0.955707 81.1233
lradius 17.501
lwrist -9.0534
lhand -22.0836 -11.1496
lfingers 7.12502
lthumb 4.32801 18.7862
rfemur -21.271 8.20392 18.4532
rtibia 8.39067
rfoot -17.2441 1.34178
rtoes -17.3742
lfemur -20.6382 -9.4785 -22.364
ltibia 7.58284
lfoot -6.97494 -3.30962
ltoes -33.4776
643
root 3.59326 17.9763 7.4994 -156.058 -2.81009 177.45
lowerback -30.2576 -2.89265 -7.49508
upperback -1.31769 -1.88354 -0.30017
thorax 14.5883 -1.61364 2.90345
lowerneck -5.97666 -6.75392 0.366463
upperneck 10.7311 -9.41638 4.7084
head 4.40728 -4.23931 0.856929
rclavicle -1.4561e-014 2.42517e-014
rhumerus -35.3639 -21.3027 -75.7213
rradius 26.0923
rwrist 3.73961
rhand -8.12513 -52.6137
rfingers 7.12502
rthumb 17.7884 -81.8201
lclavicle -1.4561e-014 2.42517e-014
lhumerus -27.8197 0.949004 81.1665
lradius 17.5873
lwrist -8.99302
lhand -21.9812 -11.1107
lfingers 7.12502
lthumb 4.42691 18.823
rfemur -21.3083 8.02507 18.5222
rtibia 8.34406
rfoot -17.1449 1.36601
rtoes -17.6362
lfemur -20.7144 -9.41637 -22.3351
ltibia 7.61418
lfoot -6.95406 -3.34749
ltoes -33.6426
644
root 3.59482 17.976 7.50572 -156.041 -2.8126 177.55
lowerback -30.2476 -2.86227 -7.39119
upperback -1.30882 -1.87897 -0.283415
thorax 14.5934 -1.60432 2.86854
lowerneck -6.15316 -6.76026 0.557469
upperneck 10.9516 -9.42925 4.44236
head 4.48254 -4.24381 0.736494
rclavicle -5.56597e-015 -1.19271e-015
rhumerus -35.2847 -21.1319 -75.8583
rradius 26.1925
rwrist 3.54733
rhand -8.15091 -52.5344
rfingers 7.12502
rthumb 17.7636 -81.7431
lclavicle -5.56597e-015 -1.19271e-015
lhumerus -27.7743 0.83631 81.2325
lradius 17.6451
lwrist -8.88314
lhand -21.9512 -11.4035
lfingers 7.12502
lthumb 4.45585 18.5297
rfemur -21.3635 7.96512 18.6583
rtibia 8.36345
rfoot -17.2381 1.50264
rtoes -17.7272
lfemur -20.7811 -9.35639 -22.2146
ltibia 7.65484
lfoot -6.94789 -3.34716
ltoes -34.0145
645
root 3.59632 17.9766 7.51208 -156.046 -2.81497 177.57
lowerback -30.2025 -2.86185 -7.37862
upperback -1.30516 -1.88458 -0.278769
thorax 14.5783 -1.60484 2.86629
lowerneck -6.2056 -6.84648 0.672777
upperneck 11.0648 -9.54983 4.33629
head 4.51783 -4.29908 0.675653
rclavicle -7.90169e-015 2.26615e-014
rhumerus -35.2468 -20.7783 -76.0579
rradius 26.3402
rwrist 3.16006
rhand -8.44146 -53.1061
rfingers 7.12502
rthumb 17.484 -82.3399
lclavicle -7.90169e-015 2.26615e-014
lhumerus -27.7774 0.615235 81.3347
lradius 17.7672
lwrist -8.6985
lhand -21.8168 -11.7451
lfingers 7.12502
lthumb 4.58564 18.1853
rfemur -21.386 7.99532 18.6786
rtibia 8.37366
rfoot -17.284 1.66628
rtoes -17.3414
lfemur -20.8106 -9.45504 -22.1668
ltibia 7.68526
lfoot -6.90178 -3.25096
ltoes -33.9415
646
root 3.59757 17.9772 7.51604 -156.076 -2.79529 177.536
lowerback -30.1598 -2.89096 -7.42171
upperback -1.29756 -1.9087 -0.282908
thorax 14.571 -1.61744 2.87649
lowerneck -6.21838 -6.8701 0.710893
upperneck 11.2104 -9.58131 4.27742
head 4.56049 -4.30963 0.647174
rclavicle 4.57205e-015 -3.93594e-014
rhumerus -35.2826 -20.2371 -76.3051
rradius 26.6103
rwrist 2.6239
rhand -8.62759 -53.6101
rfingers 7.12502
rthumb 17.3049 -82.8597
lclavicle 4.57205e-015 -3.93594e-014
lhumerus -27.8578 0.485167 81.4273
lradius 17.9457
lwrist -8.51683
lhand -21.6106 -11.4561
lfingers 7.12502
lthumb 4.7848 18.4698
rfemur -21.3527 7.97231 18.6542
rtibia 8.34187
rfoot -17.1789 1.6681
rtoes -17.3221
lfemur -20.7836 -9.47254 -22.2075
ltibia 7.65895
lfoot -6.80321 -3.25128
ltoes -33.4387
647
root 3.59967 17.9781 7.51988 -156.111 -2.76618 177.551
lowerback -30.0946 -2.90433 -7.43449
upperback -1.28839 -1.92471 -0.272393
thorax 14.555 -1.62397 2.89074
lowerneck -6.22853 -6.81257 0.655724
upperneck 11.2484 -9.50682 4.35902
head 4.57913 -4.26786 0.683764
rclavicle -1.40143e-014 9.93923e-015
rhumerus -35.3222 -19.8852 -76.4646
rradius 26.8874
rwrist 2.29151
rhand -8.52294 -53.4709
rfingers 7.12502
rthumb 17.4056 -82.7116
lclavicle -1.40143e-014 9.93923e-015
lhumerus -27.8845 0.206386 81.5576
lradius 18.086
lwrist -8.10322
lhand -21.5892 -11.2599
lfingers 7.12502
lthumb 4.80543 18.6656
rfemur -21.3423 7.9938 18.684
rtibia 8.35569
rfoot -17.1276 1.59678
rtoes -17.3036
lfemur -20.7637 -9.35426 -22.2005
ltibia 7.632
lfoot -6.7254 -3.35788
ltoes -32.8243
